<svg width="88" height="32" viewBox="0 0 88 32" fill="none" xmlns="http://www.w3.org/2000/svg">
<g clip-path="url(#clip0_26666_7188)">
<path d="M0 32L9.13386 0H13.392L4.25812 32H0Z" fill="white"/>
<path d="M20.0656 28.5188C18.4392 28.5188 17.0255 28.2591 15.8246 27.7398C14.6237 27.2205 13.6767 26.4961 12.987 25.5668C12.2939 24.6375 11.889 23.5681 11.7689 22.3586H16.1368C16.2569 22.8677 16.4765 23.3324 16.7922 23.7526C17.1079 24.1763 17.5368 24.5077 18.0858 24.7503C18.6313 24.9928 19.2798 25.1124 20.0313 25.1124C20.7827 25.1124 21.3523 25.0099 21.8155 24.8049C22.2753 24.5999 22.6149 24.3266 22.8345 23.9883C23.0541 23.6501 23.1605 23.2879 23.1605 22.9019C23.1605 22.321 23.0027 21.8769 22.687 21.5626C22.3713 21.2482 21.915 21.0022 21.3214 20.8211C20.7278 20.6401 20.0175 20.4658 19.1906 20.295C18.3157 20.1276 17.475 19.9157 16.6618 19.6595C15.8486 19.4067 15.1212 19.0855 14.4796 18.6994C13.8379 18.3134 13.3267 17.8179 12.9527 17.2132C12.5753 16.6085 12.39 15.8739 12.39 15.0027C12.39 13.9401 12.6748 12.9869 13.2443 12.1395C13.8139 11.2956 14.6408 10.6226 15.7182 10.1271C16.7991 9.63174 18.0892 9.38574 19.5955 9.38574C21.7297 9.38574 23.435 9.87432 24.708 10.8515C25.981 11.8286 26.729 13.2021 26.9451 14.9651H22.7968C22.6767 14.2886 22.337 13.7624 21.7777 13.39C21.2184 13.0176 20.4807 12.8297 19.5577 12.8297C18.6348 12.8297 17.8902 13.0039 17.3927 13.3558C16.8951 13.7078 16.6481 14.1724 16.6481 14.7498C16.6481 15.1359 16.7991 15.4741 17.1044 15.7646C17.4064 16.055 17.849 16.3044 18.4323 16.506C19.0156 16.711 19.7293 16.9091 20.5802 17.1039C21.939 17.3704 23.1399 17.6847 24.183 18.0469C25.2261 18.409 26.0496 18.942 26.6569 19.6424C27.2642 20.3428 27.5662 21.3336 27.5662 22.6149C27.5902 23.7731 27.2917 24.8015 26.6741 25.6967C26.0564 26.5918 25.1883 27.2854 24.0732 27.7808C22.9581 28.2762 21.6233 28.5222 20.069 28.5222L20.0656 28.5188Z" fill="white"/>
<path d="M38.1378 28.5183C36.3193 28.5183 34.7169 28.1254 33.3341 27.3396C31.9513 26.5537 30.8705 25.4502 30.0951 24.022C29.3196 22.5973 28.9319 20.9539 28.9319 19.0953C28.9319 17.2366 29.3127 15.4702 30.0779 14.0216C30.8431 12.573 31.9205 11.4352 33.317 10.6152C34.7135 9.79525 36.333 9.38184 38.1755 9.38184C40.0181 9.38184 41.5347 9.78158 42.8694 10.5777C44.2042 11.3737 45.2335 12.4431 45.9644 13.7859C46.6918 15.1252 47.0555 16.6319 47.0555 18.2992V19.0953C47.0555 19.3857 47.0315 19.6863 46.9834 20.0007H32.0611V17.2093H42.6533C42.6052 15.8802 42.1557 14.8348 41.3082 14.0728C40.4573 13.3109 39.4039 12.9317 38.1412 12.9317C37.2423 12.9317 36.4188 13.1367 35.6673 13.5467C34.9159 13.9567 34.3223 14.5683 33.8831 15.378C33.4473 16.1877 33.2277 17.2093 33.2277 18.4393V19.4916C33.2277 20.6259 33.4405 21.6065 33.866 22.4265C34.2914 23.2465 34.8713 23.8717 35.6124 24.2919C36.3536 24.7156 37.1839 24.9274 38.1069 24.9274C39.126 24.9274 39.9701 24.7088 40.6357 24.2749C41.3014 23.8409 41.7955 23.2601 42.1111 22.5358H46.5511C46.2114 23.6701 45.6521 24.6917 44.8767 25.5971C44.1012 26.5025 43.1405 27.2166 42.0013 27.7359C40.8622 28.2552 39.5755 28.5149 38.1447 28.5149L38.1378 28.5183Z" fill="white"/>
<path d="M49.2549 28.0849V9.81965H53.1116L53.4375 12.8639C53.9968 11.8013 54.7963 10.9574 55.8394 10.3287C56.8825 9.70007 58.1211 9.38574 59.5519 9.38574C60.9827 9.38574 62.2935 9.69324 63.3365 10.3082C64.3796 10.9232 65.186 11.8252 65.7555 13.0074C66.3251 14.1929 66.6099 15.6655 66.6099 17.4284V28.0814H62.242V17.8248C62.242 16.301 61.9023 15.1325 61.2229 14.3091C60.5435 13.4891 59.5348 13.0757 58.2035 13.0757C57.3285 13.0757 56.5462 13.2807 55.8565 13.6907C55.1634 14.1007 54.6179 14.6986 54.2198 15.4844C53.8184 16.2702 53.6194 17.22 53.6194 18.3304V28.078H49.2515L49.2549 28.0849Z" fill="white"/>
<path d="M77.4833 28.5188C75.7848 28.5188 74.2682 28.1088 72.9335 27.2854C71.5988 26.4654 70.5626 25.3277 69.8214 23.879C69.0803 22.4304 68.7131 20.787 68.7131 18.9523C68.7131 17.1175 69.0906 15.481 69.842 14.0426C70.5934 12.6042 71.6434 11.4699 72.9884 10.6362C74.3334 9.80256 75.8569 9.38574 77.5553 9.38574C78.9381 9.38574 80.1459 9.6454 81.1753 10.1647C82.2046 10.6841 83.0247 11.4152 83.632 12.3582V1.99219H87.9999V28.0849H84.0678L83.632 25.4404C83.2443 25.9734 82.7708 26.4722 82.2115 26.9437C81.6522 27.4152 80.9865 27.7944 80.2111 28.0849C79.4356 28.3753 78.5229 28.5188 77.4799 28.5188H77.4833ZM78.3926 24.7502C79.4356 24.7502 80.3586 24.5042 81.1581 24.0088C81.9576 23.5134 82.5786 22.8301 83.0144 21.9623C83.4501 21.0911 83.6697 20.09 83.6697 18.9557C83.6697 17.8214 83.4501 16.8169 83.0144 15.9491C82.5786 15.0812 81.9576 14.4047 81.1581 13.9196C80.3586 13.4378 79.4356 13.1953 78.3926 13.1953C77.3495 13.1953 76.4985 13.4378 75.6991 13.9196C74.8996 14.4047 74.2751 15.0778 73.8256 15.9491C73.3761 16.8203 73.1531 17.8214 73.1531 18.9557C73.1531 20.09 73.3761 21.0945 73.8256 21.9623C74.2751 22.8301 74.8996 23.5134 75.6991 24.0088C76.4985 24.5042 77.3975 24.7502 78.3926 24.7502Z" fill="white"/>
</g>
<defs>
<clipPath id="clip0_26666_7188">
<rect width="88" height="32" fill="white"/>
</clipPath>
</defs>
</svg>
